<?xml version="1.0" encoding="utf-8"?>
<!-- Generator: Adobe Illustrator 28.0.0, SVG Export Plug-In . SVG Version: 6.00 Build 0)  -->
<svg version="1.1" id="Layer_1" xmlns="http://www.w3.org/2000/svg" xmlns:xlink="http://www.w3.org/1999/xlink" x="0px" y="0px"
	 viewBox="0 0 384 400.2" style="enable-background:new 0 0 384 400.2;" xml:space="preserve">
<style type="text/css">
	.st0{fill:none;stroke:#FFFFFF;stroke-width:2;stroke-opacity:0.15;}
	.st1{fill:none;stroke:url(#SVGID_1_);stroke-width:2;stroke-opacity:0.85;}
</style>
<path vector-effect="non-scaling-stroke" class="st0" d="M32,0.1h287.5c8.6,0,16.8,4,22.6,10.7l32.5,38.2c5.4,6.4,8.4,14.8,8.4,23.4
	v293.7c0,18.8-13.9,34-31,34H32c-17.1,0-31-15.3-31-34v-332C1,15.4,14.9,0.1,32,0.1z"/>
<linearGradient id="SVGID_1_" gradientUnits="userSpaceOnUse" x1="191.9771" y1="667.2" x2="191.9771" y2="265" gradientTransform="matrix(1 0 0 -1 0 666.2)">
	<stop  offset="0" style="stop-color:#33CEFF"/>
	<stop  offset="0.5628" style="stop-color:#D633FF;stop-opacity:0"/>
</linearGradient>
<path vector-effect="non-scaling-stroke" class="st1" d="M33.5,0.1h286c8.6,0,16.8,3.8,22.6,10.7l32.5,38.3
	c5.4,6.3,8.4,14.7,8.4,23.3v293.7c0,18.8-13.9,34-31,34H32c-17.1,0-31-15.3-31-34v-332C0,13.4,15.5-1.7,33.5,0.1z"/>
</svg>
