<?xml version="1.0" encoding="utf-8"?>
<!-- Generator: Adobe Illustrator 28.0.0, SVG Export Plug-In . SVG Version: 6.00 Build 0)  -->
<svg version="1.1" id="Layer_1" xmlns="http://www.w3.org/2000/svg" xmlns:xlink="http://www.w3.org/1999/xlink" x="0px" y="0px"
	 viewBox="0 0 384 400.2" style="enable-background:new 0 0 384 400.2;" xml:space="preserve">
<style type="text/css">
	.st0{fill:none;stroke:#FFFFFF;stroke-width:2;stroke-opacity:0.15;}
	.st1{fill:none;stroke:url(#SVGID_1_);stroke-width:2;stroke-opacity:0.85;}
</style>
<path vector-effect="non-scaling-stroke" class="st0" d="M32,1h287.5c8.6,0,16.8,4,22.6,10.7L374.6,50c5.4,6.3,8.4,14.6,8.4,23.2
	v293c0,18.8-13.9,34-31,34H32c-17.1,0-31-15.3-31-34V35C1,16.3,14.9,1,32,1z"/>
<linearGradient id="SVGID_1_" gradientUnits="userSpaceOnUse" x1="192" y1="-266" x2="192" y2="135.25" gradientTransform="matrix(1 0 0 1 0 266)">
	<stop  offset="0" style="stop-color:#7D96EE"/>
	<stop  offset="0.5628" style="stop-color:#FF33EB;stop-opacity:0"/>
</linearGradient>
<path vector-effect="non-scaling-stroke" class="st1" d="M32,1h287.5c8.6,0,16.8,4,22.6,10.7L374.6,50c5.4,6.3,8.4,14.6,8.4,23.2
	v293c0,18.8-13.9,34-31,34H32c-17.1,0-31-15.3-31-34V35C1,16.3,14.9,1,32,1z"/>
</svg>
